<svg xmlns="http://www.w3.org/2000/svg" width="32" height="32" viewBox="0 0 32 32" fill="#ffffff" aria-hidden="true">
  <path fill-rule="evenodd" clip-rule="evenodd" d="M16 2C8.27 2 2 8.27 2 16c0 6.19 4.01 11.45 9.57 13.3.7.13.96-.3.96-.67 0-.33-.01-1.21-.02-2.38-3.89.84-4.71-1.87-4.71-1.87-.64-1.62-1.56-2.05-1.56-2.05-1.27-.87.1-.85.1-.85 1.4.1 2.14 1.44 2.14 1.44 1.25 2.14 3.28 1.52 4.08 1.16.13-.9.49-1.52.89-1.87-3.11-.35-6.38-1.56-6.38-6.93 0-1.53.55-2.78 1.45-3.76-.15-.36-.63-1.8.14-3.76 0 0 1.18-.38 3.88 1.44a13.5 13.5 0 0 1 3.52-.47c1.19 0 2.39.16 3.52.47 2.7-1.82 3.87-1.44 3.87-1.44.77 1.96.29 3.4.14 3.76.9.98 1.45 2.23 1.45 3.76 0 5.39-3.28 6.57-6.42 6.92.5.43.95 1.29.95 2.6 0 1.87-.02 3.38-.02 3.84 0 .37.25.81.96.67A14.01 14.01 0 0 0 30 16c0-7.73-6.27-14-14-14z"/>
</svg>
